<?xml version="1.0" encoding="UTF-8" standalone="no"?>
<svg
   width="100.014"
   height="100.014"
   viewBox="0 0 100 100"
   version="1.1"
   id="svg4"
   sodipodi:docname="altaroflilith.svg"
   inkscape:version="1.2.2 (732a01da63, 2022-12-09)"
   xmlns:inkscape="http://www.inkscape.org/namespaces/inkscape"
   xmlns:sodipodi="http://sodipodi.sourceforge.net/DTD/sodipodi-0.dtd"
   xmlns="http://www.w3.org/2000/svg"
   xmlns:svg="http://www.w3.org/2000/svg">
  <defs
     id="defs8" />
  <sodipodi:namedview
     id="namedview6"
     pagecolor="#505050"
     bordercolor="#eeeeee"
     borderopacity="1"
     inkscape:showpageshadow="0"
     inkscape:pageopacity="0"
     inkscape:pagecheckerboard="0"
     inkscape:deskcolor="#505050"
     showgrid="false"
     inkscape:zoom="14.52194"
     inkscape:cx="49.924458"
     inkscape:cy="58.153386"
     inkscape:window-width="1918"
     inkscape:window-height="1528"
     inkscape:window-x="953"
     inkscape:window-y="0"
     inkscape:window-maximized="0"
     inkscape:current-layer="svg4" />
  <path
     fill="none"
     stroke="#000000"
     d="m 29,18 c 3.37,2.08 11.15,4.2 15,4.25 2.49,0.04 3.96,-1.2 5.99,-1.15 2.21,0.05 3.51,1.48 5.43,1.55 l 11.49,-2.2 C 68.62,19.88 69.6,19.03 71,18 68.8,25.4 64.95,24.15 59,32 67.31,28.18 67.49,32.25 71.96,31.2 76.77,30.07 77.54,24.16 84,25 76.35,31.28 79.13,36.74 72,38.81 69.52,39.53 64.9,38.26 62,38 l 1,5 -6,-4 -3.62,10 c -0.7,5.06 4.23,18.33 6.62,23 -4.472098,3.734755 -6.158708,5.471619 -8.716191,5.634886 -0.406508,0.02595 -2.117107,-0.07062 -2.521823,-0.154736 C 46.34815,76.978472 44.18516,75.349302 41,71 43.67,66.68 48.39,52.94 47.25,48 L 43,39 38,44 39,38 29,39.09 C 22.48,37.79 22.91,31.58 16,24 L 28.01,30.8 42,32 C 36.38,25.58 31,24.65 29,18 Z M 37,75 50.344693,80.127371 64,75 C 61.01,78.23 53.65,84.25 49,83.2 45.41,82.38 39.51,77.71 37,75 Z"
     id="path2"
     sodipodi:nodetypes="cccccccccscccccssccccccccccccccc" />
</svg>
