<svg xmlns="http://www.w3.org/2000/svg" width="100.014" height="100.014" viewBox="0 0 100 100">
    <path fill="none" stroke="#000" d="M17 15 36.28 4.42 51 2.06 62 3c3.01 3.18 3.57 3.77 8 4l8.32 8.31L88 29l-1 5 11-2v5c-2.69 1.04-6.39 2.38-7.87 5.14-.87 2.06-.09 9.91 0 12.86-.24 6.71-1.88 7.62-1.88 11 0 3.33 1.73 4.18 1.75 13 .01 5.47-.93 7.79 3 12-4.43 8.37-13.58 5.17-14.83 2.57-1.39-2.88 2.36-5.21 2.51-9.57.36-10.59-9.52-9-16.68-9-.69 4.93-1.51 6.66-6 9-.77-2.11-1.43-4.66-3.42-5.98-1.58-1.05-3.76-.96-5.58-1.1-6.14-.5-9.81-.77-9 7.08-5.16-1.57-5.42-3.13-7-8H19.06v12.96c.42 2.89 1.89 5.08 1.25 6.72-1.2 3.04-10.35 3.35-11.43 0-1.06-3.22 2.54-4.53 2.03-12.68-.57-9.19-3.2-9.86-3.85-14.09V47H10c-.69-4.67-1.39-5.74-6-7l-2-8.1c2.04.14 7.14.73 8.69 0 3.5-1.94 3.9-8.56 3.31-11.9h4l-1-5ZM68 5h1l-1 1V5Zm-12 6-17-1c0 4.89-.7 18.16 1.31 21.94 2.44 4.58 11.51 5.79 14.7 1.41 1.24-1.71.99-5.28.99-7.35V11Zm10.09 3.36c-.17.03-1.19-.37-2.09.52-1.16 1.13-.74 3.7-.57 5.12.49 4.04.65 12.22 4.7 14.15 4.38 2.07 11.8 1.35 10.07-5.15-1.5-5.6-6.9-12.23-12.11-14.64ZM31 14c-4.07 2.64-6.26 5.13-7 10h-3l1.07 6c-4.15 1.7-3.01 4.8 0 5.69 10.16 2.9 10.46-5.84 10.02-12.69-.26-4 .07-4.9-1.09-9Zm2 55c-2.02-11.25 1.51-19.89-.85-24.86-2.2-4.63-13.99-4.32-15.27 0C15.83 47.7 19.35 64.04 20 69h13Zm8 1 13.4-1.02L56 62l-.99-19.26L40 41c-2.5 8.8-.97 20.23 1 29Zm39-27.99c-3.26-.59-11.8-2.05-14.52 0-2.32 1.77-.99 4.64-.74 6.99.46 4.23-2.55 16.28.86 18.98C67.58 69.54 77.1 69 80 69V42.01Z"/>
</svg>
